<svg width="221" height="202" viewBox="0 0 221 202" fill="none" xmlns="http://www.w3.org/2000/svg">
<g clip-path="url(#clip0)">
<path d="M211.297 14.6115H188.396C186.607 14.6115 185.157 15.9368 185.157 17.5724C185.157 19.2081 186.607 20.5334 188.396 20.5334H211.297C213.075 20.5334 214.521 21.8556 214.521 23.4802V34.4331H6.47899V23.4802C6.47899 21.8556 7.92553 20.5334 9.70293 20.5334H174.591C176.38 20.5334 177.831 19.2081 177.831 17.5724C177.831 15.9368 176.38 14.6115 174.591 14.6115H9.70293C4.35302 14.6115 0 18.5898 0 23.4802V178.52C0 183.411 4.35302 187.389 9.70293 187.389H211.297C216.647 187.389 221 183.411 221 178.52V23.4802C221 18.5898 216.647 14.6115 211.297 14.6115ZM6.47899 178.52V138.341H48.9103V181.467H9.70293C7.92553 181.467 6.47899 180.145 6.47899 178.52ZM211.297 181.467H55.3893V109.558C55.3893 107.923 53.9389 106.597 52.1498 106.597C50.3607 106.597 48.9103 107.923 48.9103 109.558V132.419H6.47899V40.355H48.9103V96.9395C48.9103 98.5751 50.3607 99.9005 52.1498 99.9005C53.9389 99.9005 55.3893 98.5751 55.3893 96.9395V40.355H214.521V178.52C214.521 180.145 213.075 181.467 211.297 181.467Z" fill="#0E306C"/>
<path d="M19.3557 24.3867C17.5666 24.3867 16.1162 25.712 16.1162 27.3476C16.1162 28.9833 17.5666 30.3086 19.3557 30.3086H21.1642C22.9533 30.3086 24.4037 28.9833 24.4037 27.3476C24.4037 25.712 22.9533 24.3867 21.1642 24.3867H19.3557Z" fill="#0E306C"/>
<path d="M36.9565 24.3867C35.1675 24.3867 33.717 25.712 33.717 27.3476C33.717 28.9833 35.1675 30.3086 36.9565 30.3086H38.765C40.5541 30.3086 42.0045 28.9833 42.0045 27.3476C42.0045 25.712 40.5541 24.3867 38.765 24.3867H36.9565Z" fill="#0E306C"/>
<path d="M54.5574 24.3867C52.7683 24.3867 51.3179 25.712 51.3179 27.3476C51.3179 28.9833 52.7683 30.3086 54.5574 30.3086H56.3659C58.1549 30.3086 59.6054 28.9833 59.6054 27.3476C59.6054 25.712 58.1549 24.3867 56.3659 24.3867H54.5574Z" fill="#0E306C"/>
<path d="M176.345 91.7933C176.146 90.0511 175.217 88.4841 173.729 87.381L162.47 79.0338C161.081 78.0038 159.04 78.198 157.914 79.4685C156.787 80.7386 156.999 82.6032 158.389 83.6336L169.647 91.9808C169.945 92.2011 169.99 92.6011 169.749 92.8731L166.541 96.4867C166.392 96.6556 166.205 96.7058 166.075 96.718C165.943 96.7302 165.75 96.7164 165.565 96.5794L162.972 94.6568C162.97 94.6552 162.968 94.6536 162.966 94.6524L130.63 70.6787C129.44 69.7975 127.738 69.7975 126.548 70.6787L94.2109 94.6532C94.2096 94.654 94.2083 94.6552 94.207 94.6564L91.612 96.5802C91.4275 96.7168 91.234 96.7314 91.1031 96.7184C90.9727 96.7062 90.7857 96.656 90.6358 96.487L87.4287 92.8735C87.2788 92.7045 87.2637 92.5272 87.2775 92.4076C87.2909 92.2884 87.3462 92.1178 87.5302 91.9812L92.8827 88.0127L92.8831 88.0123L109.819 75.4566C109.821 75.4554 109.822 75.4542 109.824 75.453L126.548 63.054C127.73 62.1775 129.447 62.1771 130.629 63.054L147.664 75.6836C149.053 76.7132 151.093 76.519 152.22 75.2489C153.347 73.9788 153.135 72.1142 151.745 71.0838L134.71 58.4542C131.163 55.8248 126.013 55.8248 122.466 58.4542L111 66.9546V62.3887C111.994 61.3927 112.606 60.0732 112.606 58.622V52.9515C112.606 49.863 109.857 47.3501 106.478 47.3501H92.1048C88.7258 47.3501 85.9765 49.863 85.9765 52.9515V58.622C85.9765 60.0732 86.5886 61.3927 87.5825 62.3887V84.3162L83.448 87.3814C81.96 88.4849 81.0309 90.0518 80.8322 91.7937C80.6335 93.5351 81.189 95.2434 82.3958 96.6039L85.6029 100.217C86.8097 101.578 88.5241 102.427 90.4293 102.608C90.6829 102.633 90.9356 102.645 91.1869 102.645C91.8141 102.645 92.4318 102.569 93.0278 102.423V126.418H91.1243C89.3352 126.418 87.8848 127.744 87.8848 129.379C87.8848 131.015 89.3352 132.34 91.1243 132.34H165.749C167.538 132.34 168.989 131.015 168.989 129.379C168.989 127.744 167.538 126.418 165.749 126.418H164.147V102.419C164.983 102.623 165.86 102.694 166.746 102.608C168.651 102.427 170.365 101.578 171.572 100.217L174.78 96.6039C175.988 95.243 176.543 93.5348 176.345 91.7933ZM92.4568 53.2717H106.128V58.3014H92.4568V53.2717ZM94.0627 64.2234H104.522V71.7577L94.0627 79.5123V64.2234ZM136.418 126.417H120.761V123.994C120.761 120.049 124.273 116.839 128.589 116.839C132.906 116.839 136.418 120.049 136.418 123.994V126.417ZM142.897 126.417V123.994C142.897 116.783 136.479 110.917 128.589 110.917C120.7 110.917 114.282 116.783 114.282 123.994V126.417H99.5086V98.3505L128.589 76.791L157.67 98.3505V126.417H142.897Z" fill="#0E306C"/>
<path d="M139.657 93.5837H117.521C115.732 93.5837 114.282 94.9091 114.282 96.5447C114.282 98.1804 115.732 99.5057 117.521 99.5057H139.657C141.446 99.5057 142.897 98.1804 142.897 96.5447C142.897 94.9091 141.446 93.5837 139.657 93.5837Z" fill="#0E306C"/>
<path d="M105.64 141.992H99.0046C96.8095 141.992 95.0239 143.624 95.0239 145.631V166.164C95.0239 168.17 96.8095 169.803 99.0046 169.803H105.64C110.728 169.803 114.867 166.02 114.867 161.37C114.867 159.281 114.028 157.372 112.647 155.897C114.027 154.423 114.867 152.513 114.867 150.425C114.867 145.775 110.728 141.992 105.64 141.992ZM101.503 147.914H105.641C107.156 147.914 108.388 149.041 108.388 150.425C108.388 151.81 107.156 152.936 105.641 152.936H101.503V147.914ZM105.64 163.881H101.502V158.858H105.64C107.155 158.858 108.388 159.985 108.388 161.369C108.388 162.753 107.155 163.881 105.64 163.881Z" fill="#0E306C"/>
<path d="M136.634 141.992C134.845 141.992 133.394 143.317 133.394 144.953V160.734C133.394 162.469 131.85 163.881 129.952 163.881C128.053 163.881 126.509 162.469 126.509 160.734V144.953C126.509 143.317 125.059 141.992 123.27 141.992C121.481 141.992 120.03 143.317 120.03 144.953V160.734C120.03 165.735 124.481 169.803 129.952 169.803C135.423 169.803 139.873 165.735 139.873 160.734V144.953C139.873 143.318 138.423 141.992 136.634 141.992Z" fill="#0E306C"/>
<path d="M163.74 142.672C162.363 141.629 160.32 141.805 159.179 143.064L154.992 147.687L150.805 143.064C149.664 141.805 147.622 141.629 146.244 142.672C144.866 143.715 144.674 145.581 145.814 146.841L151.753 153.398V166.842C151.753 168.477 153.203 169.803 154.992 169.803C156.781 169.803 158.231 168.477 158.231 166.842V153.398L164.17 146.841C165.31 145.581 165.118 143.715 163.74 142.672Z" fill="#0E306C"/>
<path d="M203.503 155.058L195.394 147.647L197.688 145.579C198.812 144.568 199.154 143.05 198.561 141.715C197.968 140.379 196.565 139.509 194.988 139.499L176.96 139.382C176.949 139.382 176.938 139.382 176.928 139.382C174.516 139.382 172.544 141.167 172.527 143.376L172.399 159.854C172.388 161.296 173.319 162.59 174.772 163.152C176.226 163.713 177.89 163.421 179.013 162.409L181.554 160.12L189.76 167.62C190.599 168.387 191.714 168.809 192.9 168.809C194.087 168.809 195.201 168.387 196.04 167.621L203.505 160.797C205.235 159.215 205.235 156.641 203.505 155.059C203.503 155.058 203.503 155.058 203.503 155.058ZM192.899 162.115L183.859 153.853C183.227 153.275 182.398 152.986 181.569 152.986C180.747 152.986 179.925 153.27 179.294 153.838L178.921 154.175L178.99 145.317L188.681 145.38L188.522 145.523C187.907 146.076 187.56 146.831 187.557 147.62C187.554 148.409 187.895 149.167 188.506 149.725L197.48 157.927L192.899 162.115Z" fill="#0E306C"/>
<path d="M36.729 110.917H17.4604C15.6714 110.917 14.2209 112.242 14.2209 113.878C14.2209 115.514 15.6714 116.839 17.4604 116.839H36.729C38.518 116.839 39.9684 115.514 39.9684 113.878C39.9684 112.242 38.518 110.917 36.729 110.917Z" fill="#0E306C"/>
<path d="M36.729 97.6442H17.4604C15.6714 97.6442 14.2209 98.9695 14.2209 100.605C14.2209 102.241 15.6714 103.566 17.4604 103.566H36.729C38.518 103.566 39.9684 102.241 39.9684 100.605C39.9684 98.9695 38.518 97.6442 36.729 97.6442Z" fill="#0E306C"/>
<path d="M36.729 84.3715H17.4604C15.6714 84.3715 14.2209 85.6968 14.2209 87.3324C14.2209 88.9681 15.6714 90.2934 17.4604 90.2934H36.729C38.518 90.2934 39.9684 88.9681 39.9684 87.3324C39.9684 85.6968 38.518 84.3715 36.729 84.3715Z" fill="#0E306C"/>
<path d="M36.729 71.0988H17.4604C15.6714 71.0988 14.2209 72.4241 14.2209 74.0597C14.2209 75.6954 15.6714 77.0207 17.4604 77.0207H36.729C38.518 77.0207 39.9684 75.6954 39.9684 74.0597C39.9684 72.4241 38.518 71.0988 36.729 71.0988Z" fill="#0E306C"/>
<path d="M36.729 57.8256H17.4604C15.6714 57.8256 14.2209 59.1509 14.2209 60.7865C14.2209 62.4222 15.6714 63.7475 17.4604 63.7475H36.729C38.518 63.7475 39.9684 62.4222 39.9684 60.7865C39.9684 59.1509 38.518 57.8256 36.729 57.8256Z" fill="#0E306C"/>
<path d="M27.0948 146.626C19.2764 146.626 12.9158 152.44 12.9158 159.586C12.9158 166.732 19.2764 172.546 27.0948 172.546C34.9132 172.546 41.2739 166.732 41.2739 159.586C41.2739 152.44 34.9128 146.626 27.0948 146.626ZM27.0948 166.624C22.8489 166.624 19.3948 163.467 19.3948 159.586C19.3948 155.705 22.8489 152.548 27.0948 152.548C31.3407 152.548 34.7949 155.705 34.7949 159.586C34.7949 163.467 31.3403 166.624 27.0948 166.624Z" fill="#0E306C"/>
</g>
<defs>
<clipPath id="clip0">
<rect width="221" height="202" fill="white"/>
</clipPath>
</defs>
</svg>
